<svg width="512" height="512" viewBox="0 0 512 512" xmlns="http://www.w3.org/2000/svg">
    <defs>
        <linearGradient id="goldGrad" x1="0%" y1="0%" x2="100%" y2="100%">
            <stop offset="0%" style="stop-color:#F9F0B2;stop-opacity:1" />
            <stop offset="20%" style="stop-color:#E1B94E;stop-opacity:1" />
            <stop offset="50%" style="stop-color:#C5A059;stop-opacity:1" />
            <stop offset="80%" style="stop-color:#8A6E2F;stop-opacity:1" />
            <stop offset="100%" style="stop-color:#E1B94E;stop-opacity:1" />
        </linearGradient>
        <filter id="innerShadow" x="-20%" y="-20%" width="140%" height="140%">
            <feGaussianBlur in="SourceAlpha" stdDeviation="10" result="blur"/>
            <feOffset dx="5" dy="5"/>
            <feComposite in2="SourceAlpha" operator="arithmetic" k2="-1" k3="1" result="shadowDiff"/>
            <feFlood flood-color="#000" flood-opacity="0.5"/>
            <feComposite in2="shadowDiff" operator="in"/>
            <feComposite in2="SourceGraphic" operator="over"/>
        </filter>
    </defs>
    <rect x="20" y="20" width="472" height="472" rx="105" fill="#0A192F" stroke="url(#goldGrad)" stroke-width="6" filter="url(#innerShadow)"/>
    <g transform="translate(105, 145)">
        <path d="M75,185 A55,55 0 1,1 75,75 L75,10" fill="none" stroke="url(#goldGrad)" stroke-width="28" stroke-linecap="round" stroke-linejoin="round"/>
        <path d="M75,185 C110,230 145,210 160,165" fill="none" stroke="url(#goldGrad)" stroke-width="28" stroke-linecap="round"/>
        <path d="M160,165 C185,85 210,135 210,165 C210,195 240,245 265,105" fill="none" stroke="url(#goldGrad)" stroke-width="28" stroke-linecap="round"/>
        <path d="M265,85 C265,55 240,30 210,30 C180,30 155,55 155,85 C155,115 210,175 210,175 C210,175 265,115 265,85 Z" fill="url(#goldGrad)" transform="translate(55, -20) scale(0.65)"/>
        <circle cx="210" cy="85" r="12" fill="#0A192F" transform="translate(55, -20) scale(0.65)"/>
    </g>
</svg>
